<svg xmlns="http://www.w3.org/2000/svg" xmlns:xlink="http://www.w3.org/1999/xlink" xmlns:inkscape="http://www.inkscape.org/namespaces/inkscape" version="1.1" width="841.89" height="595.276" viewBox="0 0 841.89 595.276">
<defs>
<clipPath id="clip_0">
<path transform="matrix(1,0,0,-1,0,595.276)" d="M0 595.276H841.89V0H0Z"/>
</clipPath>
</defs>
<g inkscape:groupmode="layer" inkscape:label="Layer 1">
<g clip-path="url(#clip_0)">
<path transform="matrix(1,0,0,-1,239.789,171.29199)" d="M0 0C14.827 55.964 90.554 50.382 113.955 9.838 149.727 59.237 223.608 47.759 229.916-4.648 234.251-34.651 218.088-71.01 190.864-96.1 125.993-102.398 101.241-61.96 74.903-41.963 57.543-26.408 20.898-8.002 .385-13.443 13.442-1.92 38.49-3.205 74.903-24.047L108.081-41.297C121.786-49.033 131.444-46.756 137.66-34.362 142.076-22.542 143.128-12.327 139.857-2.625 149.066-11.616 150.088-26.732 149.049-42.753 151.48-56.465 162.497-63.697 172.122-68.548 181.427-72.918 189.653-75.439 199.746-76.728 230.584-24.044 216.771 21.587 185.13 27.075 162.334 34.578 129.655 22.127 114.842-3.693 88.97 34.813 24.983 39.026 0 0" fill="#6fbeb4" fill-rule="evenodd"/>
<path transform="matrix(1,0,0,-1,355.0146,187.18451)" d="M0 0C5.503 0 9.965-4.361 9.965-9.74 9.965-15.119 5.503-19.48 0-19.48-5.504-19.48-9.965-15.119-9.965-9.74-9.965-4.361-5.504 0 0 0" fill="#0a9e9f" fill-rule="evenodd"/>
<path transform="matrix(1,0,0,-1,239.7216,198.43109)" d="M0 0C12.959-62.271 73.951-101.551 115.336-132.208 139.963-117.152 160.739-100.213 178.395-81.751 100.633-115.815 70.247 10.112 0 0" fill="#069d9f" fill-rule="evenodd"/>
<path transform="matrix(1,0,0,-1,430.6528,267.3921)" d="M0 0C-64.871-6.298-89.623 34.14-115.961 54.137-133.321 69.692-169.966 88.098-190.479 82.657-177.421 94.18-152.374 92.896-115.961 72.053L-82.784 54.803C-69.078 47.066-59.42 49.345-53.204 61.738-48.788 73.559-47.736 83.773-51.007 93.475-41.797 84.484-40.776 69.367-41.815 53.347-39.384 39.635-28.368 32.403-18.742 27.552-9.694 23.302-1.667 20.802 8.05 19.482L16.7 18.603C11.712 11.765 6.306 5.812 0 0" fill="#ec2027" fill-rule="evenodd"/>
<path transform="matrix(1,0,0,-1,67.4873,431.4101)" d="M0 0V2.83C2.799 2.83 5.502 4.104 8.107 6.65 10.811 9.293 12.933 12.735 14.478 16.98L52.122 104.01H54.293L94.109 16.98C95.653 12.735 97.631 9.293 100.045 6.65 102.458 4.104 104.822 2.83 107.139 2.83V0H69.495V2.83H72.391C74.417 2.83 76.107 3.443 77.458 4.67 78.906 5.896 79.63 7.406 79.63 9.198 79.63 10.519 78.906 13.113 77.458 16.98L69.785 33.962H28.667L21.283 16.98C20.125 13.867 19.545 11.273 19.545 9.198 19.545 7.406 20.317 5.896 21.862 4.67 23.406 3.443 25.289 2.83 27.509 2.83H30.404V0ZM30.839 39.622H68.047L49.226 82.075Z" fill="#12888a"/>
<path transform="matrix(1,0,0,-1,177.9565,465.372)" d="M0 0V2.829H2.896C5.309 2.829 7.336 3.82 8.977 5.802 10.713 7.687 11.582 10 11.582 12.735V87.735C11.582 89.717 11.003 91.367 9.845 92.688 8.783 94.104 7.431 94.811 5.791 94.811H.724L0 97.641 24.613 104.716V94.104C26.544 97.404 29.583 99.999 33.734 101.887 37.885 103.772 42.566 104.716 47.778 104.716 54.727 104.716 60.712 101.697 65.73 95.66 70.653 89.527 73.115 82.169 73.115 73.584 73.115 62.264 70.075 52.594 63.994 44.574 57.913 36.556 50.577 32.546 41.987 32.546 37.836 32.546 34.217 32.971 31.128 33.82 28.136 34.669 25.964 35.896 24.613 37.499V12.735C24.613 10 25.626 7.687 27.654 5.802 29.583 3.82 31.948 2.829 34.748 2.829H37.643V0ZM40.539 36.792C46.137 36.792 50.915 39.811 54.873 45.849 58.83 51.98 60.808 59.339 60.808 67.924 60.808 75.942 58.83 82.782 54.873 88.442 50.915 94.104 46.137 96.934 40.539 96.934 37.064 96.934 33.879 96.037 30.983 94.245 28.087 92.452 25.964 90.047 24.613 87.027V45.283C25.578 42.735 27.509 40.66 30.404 39.057 33.299 37.547 36.678 36.792 40.539 36.792" fill="#12888a"/>
<path transform="matrix(1,0,0,-1,297.2573,432.8261)" d="M0 0C-8.398 0-15.54 3.586-21.428 10.756-27.413 17.925-30.405 26.604-30.405 36.794-30.405 46.604-27.413 54.953-21.428 61.84-15.54 68.727-8.398 72.17 0 72.17 8.397 72.17 15.54 69.01 21.427 62.689 27.412 56.274 30.405 48.586 30.405 39.623H-18.822C-18.822 31.794-16.264 25.142-11.149 19.671-6.129 14.104 0 11.321 7.239 11.321 11.969 11.321 16.553 12.689 20.993 15.425 25.434 18.256 29.053 22.076 31.852 26.887L34.023 25.473C32.093 18.02 27.991 11.888 21.717 7.076 15.346 2.359 8.108 0 0 0M-18.822 43.868H17.373C16.12 50.85 13.802 56.604 10.424 61.133 6.949 65.661 3.233 67.925-.725 67.925-4.682 67.925-8.398 65.661-11.873 61.133-15.251 56.604-17.567 50.85-18.822 43.868" fill="#12888a"/>
<path transform="matrix(1,0,0,-1,337.7959,431.4101)" d="M0 0V2.83C2.317 2.83 4.489 3.443 6.516 4.67 8.64 5.99 10.328 7.735 11.583 9.905L29.681 36.085 15.203 58.019C12.887 60.754 10.521 62.83 8.109 64.245 5.696 65.754 3.476 66.509 1.449 66.509V69.339H34.749V66.509H31.853C30.694 66.509 29.681 66.179 28.812 65.519 27.943 64.764 27.509 63.915 27.509 62.972 27.509 62.499 27.703 61.887 28.088 61.132 28.378 60.283 28.909 59.245 29.681 58.019L36.92 46.697 44.883 58.019C46.331 60.471 47.055 62.594 47.055 64.386 47.055 64.952 46.862 65.471 46.477 65.943 45.993 66.32 45.463 66.509 44.883 66.509H41.988V69.339H65.153V66.509C62.643 66.509 60.182 65.754 57.769 64.245 55.356 62.735 53.232 60.66 51.399 58.019L40.54 42.452 62.257 9.905C64.188 7.642 66.021 5.896 67.759 4.67 69.593 3.443 71.137 2.83 72.392 2.83V0H41.988V2.83H44.883C46.042 2.83 47.055 3.113 47.923 3.679 48.792 4.245 49.227 4.905 49.227 5.66 49.227 6.227 49.034 6.887 48.647 7.642 48.262 8.302 47.73 9.057 47.055 9.905L33.3 31.132 18.822 9.905C18.34 9.34 18.002 8.679 17.809 7.924 17.519 7.265 17.375 6.509 17.375 5.66 17.375 4.905 17.664 4.245 18.243 3.679 18.822 3.113 19.498 2.83 20.27 2.83H23.166V0Z" fill="#12888a"/>
<path transform="matrix(1,0,0,-1,143.3891,328.6972)" d="M0 0 2.754-1.035 6.145 0C7.486-1.675 8.607-3.729 9.508-6.162 9.985-7.611 10.258-9.259 10.329-11.106L10.276-12.013 9.508-14.627C8.661-15.956 7.557-17.104 6.197-18.07 5.896-18.329 5.491-18.571 4.979-18.795 4.696-18.898 4.388-18.933 4.052-18.898 3.628-18.847 3.266-18.718 2.966-18.511L.53-16.931C.264-17.345-.089-17.733-.53-18.096-.848-18.355-1.263-18.597-1.776-18.82-1.987-18.89-2.199-18.916-2.411-18.898-2.535-18.882-2.641-18.847-2.729-18.795-2.835-18.743-2.915-18.674-2.967-18.588-3.426-18.122-3.841-17.622-4.212-17.087-4.441-16.689-4.557-16.275-4.557-15.844-2.419-11.563-.901-6.282 0 0M3.311-1.942C2.71-6.101 1.482-10.217-.371-14.29-.407-14.463-.389-14.627-.318-14.782-.195-14.99-.036-15.128 .159-15.197 .67-15.542 1.226-15.818 1.827-16.024 2.251-16.146 2.675-16.206 3.098-16.206 3.822-15.896 4.484-15.473 5.084-14.938 5.474-14.593 5.817-14.17 6.118-13.669 6.312-13.342 6.48-12.962 6.621-12.53L6.701-9.863 6.039-7.223C5.509-5.652 4.741-4.073 3.734-2.485Z" fill="#ec2027"/>
<path transform="matrix(1,0,0,-1,159.3603,335.1435)" d="M0 0C.142-1.381 .044-2.856-.292-4.427L-.106-4.479 1.43-1.683C1.854-1.147 2.269-.717 2.675-.388 2.764-.319 2.86-.268 2.966-.233 3.072-.216 3.187-.207 3.311-.207 3.646-.207 3.938-.294 4.185-.466 4.361-.604 4.538-.812 4.714-1.088 4.115-2.192 3.655-3.365 3.337-4.608L1.271-4.22C.776-4.72 .406-5.247 .159-5.799-.036-6.213-.167-6.566-.238-6.86L-1.192-11.287C-1.263-11.633-1.431-11.943-1.695-12.22-1.731-12.271-1.766-12.314-1.802-12.349-1.854-12.366-1.907-12.383-1.96-12.4-2.172-12.436-2.384-12.392-2.596-12.271-3.037-12.047-3.408-11.744-3.708-11.365-4.008-11.003-4.238-10.598-4.397-10.148L-4.529-9.786-4.318-8.958-3.073-6.291-2.914-5.411-2.993-1.683-3.125-.828Z" fill="#ec2027"/>
<path transform="matrix(1,0,0,-1,167.333,343.9453)" d="M0 0C.141 0 .256-.035 .344-.104 .45-.173 .503-.259 .503-.363 .292-.829 .177-1.286 .159-1.734 .141-2.218 .239-2.676 .45-3.107 .521-3.245 .627-3.418 .769-3.625 .08-3.763-.6-3.788-1.271-3.702-1.854-3.65-2.349-3.556-2.755-3.418-3.072-3.297-3.311-3.099-3.47-2.822-3.646-2.563-3.735-2.278-3.735-1.968-3.735-1.812-3.708-1.674-3.655-1.554-3.62-1.398-3.559-1.269-3.47-1.165-3.275-.924-3.028-.742-2.729-.622-2.251-.38-1.775-.225-1.298-.156-.768-.069-.335-.018 0 0" fill="#ec2027"/>
<path transform="matrix(1,0,0,-1,186.0327,328.9306)" d="M0 0H.238L-.451-4.298 1.403-1.786C1.881-1.217 2.463-.742 3.152-.362 3.398-.19 3.681-.068 3.999 0 4.299 .034 4.6 .009 4.899-.077 5.341-.216 5.765-.439 6.171-.751 6.648-1.131 7.072-1.596 7.443-2.148 7.637-2.407 7.751-2.718 7.787-3.08 7.822-3.564 7.778-4.047 7.655-4.53 7.548-5.031 7.363-5.505 7.098-5.954 6.709-6.559 6.198-7.103 5.562-7.585L5.35-7.74C4.308-8.482 3.196-9.087 2.013-9.553 2.737-11.503 3.69-13.271 4.873-14.859L6.277-16.542 6.224-16.982 3.628-18.898H3.417C1.916-17.017 .732-15.032-.133-12.944L-1.007-10.252V-9.553L1.642-8.336C2.136-8.061 2.604-7.697 3.045-7.249 3.328-6.921 3.54-6.507 3.681-6.006 3.875-5.488 3.973-4.944 3.973-4.375 4.008-4.099 3.973-3.813 3.867-3.521 3.778-3.331 3.61-3.167 3.364-3.028 3.187-2.925 3.037-2.856 2.914-2.822 2.418-3.063 1.995-3.349 1.642-3.676 .882-4.436 .292-5.247-.133-6.109L-1.245-8.725-3.47-17.889C-3.559-18.131-3.699-18.389-3.894-18.665-3.912-18.699-3.938-18.734-3.974-18.769-4.008-18.786-4.053-18.803-4.106-18.82-4.318-18.82-4.529-18.769-4.742-18.665-5.184-18.44-5.563-18.164-5.88-17.837-6.269-17.457-6.596-17.068-6.86-16.672-7.037-16.344-7.134-16.008-7.151-15.662-7.169-15.3-7.107-14.972-6.967-14.679L-4.132-8.517C-3.603-6.118-3.435-3.606-3.628-.983Z" fill="#ec2027"/>
<path transform="matrix(1,0,0,-1,200.706,329.9658)" d="M0 0 .317-.26C.229-.725 .238-1.2 .344-1.683 .468-2.2 .68-2.641 .98-3.003 .486-3.193-.105-3.313-.795-3.365-1.395-3.383-1.898-3.365-2.305-3.313-2.393-3.297-2.472-3.271-2.543-3.236-2.614-3.185-2.675-3.124-2.728-3.056-2.957-2.796-3.1-2.529-3.152-2.252-3.188-2.028-3.152-1.812-3.046-1.605-2.975-1.484-2.914-1.381-2.861-1.294-2.437-.915-1.96-.613-1.431-.389-1.006-.198-.53-.069 0 0M-.265-5.515-1.669-9.062C-2.499-11.892-2.914-14.541-2.914-17.009-3.956-17.458-5.13-17.751-6.436-17.889-6.136-13.764-5.333-9.941-4.026-6.421Z" fill="#ec2027"/>
<path transform="matrix(1,0,0,-1,210.6386,335.2734)" d="M0 0C-.088-.846-.354-1.709-.794-2.589-3.39-4.573-5.606-6.8-7.442-9.268-5.959-9.009-4.476-8.983-2.993-9.19L-1.934-9.423-2.939-12.09-7.045-12.063-9.508-12.452-10.542-9.656C-8.564-7.912-6.463-5.747-4.238-3.158-5.174-3.348-6.189-3.408-7.284-3.34-7.76-3.27-8.176-3.176-8.529-3.055L-7.655-.232C-6.454-.474-5.156-.526-3.761-.389Z" fill="#ec2027"/>
<path transform="matrix(1,0,0,-1,227.5913,332.5283)" d="M0 0C.071 .017 .15 .017 .237 0 .309-.018 .379-.053 .45-.104 .521-.155 .573-.216 .609-.285 .644-.338 .671-.406 .687-.493 .776-.89 .759-1.295 .635-1.709 .176-3.85-.513-5.921-1.431-7.923L-3.444-11.469-5.616-14.084-7.258-15.326-7.602-15.301-8.715-13.722-9.642-11.081-10.887-12.867-13.456-15.301H-13.959C-14.648-14.731-15.222-14.161-15.681-13.592-15.945-13.265-16.104-12.936-16.158-12.608-16.263-11.59-16.254-10.641-16.131-9.761-15.813-7.568-15.274-5.55-14.515-3.703L-10.887-2.796C-12.017-5.265-12.741-7.621-13.059-9.864L-13.084-11.521-12.688-11.961C-11.876-11.46-11.099-10.779-10.357-9.915L-9.88-9.243-9.721-7.146-8.98-4.479C-8.803-4.151-8.547-3.867-8.211-3.625-7.593-3.297-6.896-3.056-6.119-2.9-5.836-2.831-5.554-2.796-5.271-2.796-5.183-2.813-5.112-2.84-5.059-2.874-4.989-2.909-4.927-2.952-4.875-3.003-4.821-3.056-4.786-3.125-4.768-3.211-4.732-3.28-4.724-3.357-4.742-3.443-4.795-3.91-4.927-4.401-5.139-4.919-5.546-5.903-6.155-6.904-6.967-7.923-6.967-9.217-6.764-10.408-6.357-11.495L-6.146-11.521C-4.962-10.399-3.956-9.079-3.126-7.56-2.808-6.938-2.579-6.403-2.438-5.955L-3.126-3.496C-3.197-3.202-3.197-2.909-3.126-2.615-3.056-2.356-2.94-2.132-2.781-1.942-2.128-1.286-1.421-.726-.663-.26-.451-.104-.23-.018 0 0" fill="#ec2027"/>
<path transform="matrix(1,0,0,-1,234.2387,335.2734)" d="M0 0C.053 0 .124-.018 .212-.051 .3-.104 .371-.129 .424-.129L2.119-1.294H2.278C2.313-1.277 2.358-1.26 2.411-1.242 2.764-.794 3.082-.457 3.364-.232 3.452-.164 3.558-.12 3.681-.104 3.788-.086 3.902-.086 4.026-.104 4.432-.345 4.777-.673 5.06-1.087 5.253-1.397 5.395-1.742 5.483-2.123 5.166-3.193 4.618-4.341 3.841-5.565 3.681-6.463 3.665-7.352 3.788-8.232 3.982-9.319 4.291-10.372 4.715-11.391L1.669-12.297 1.457-11.908C1.086-10.648 .9-9.475 .9-8.388H.716L.132-9.268-2.516-11.675C-2.692-11.899-2.932-12.081-3.231-12.219-3.514-12.34-3.796-12.356-4.079-12.271-4.432-12.202-4.714-12.081-4.926-11.908-5.491-11.407-5.96-10.847-6.33-10.226-6.595-9.742-6.79-9.311-6.913-8.931-6.913-8.447-6.833-7.99-6.674-7.559-6.074-6.127-5.324-4.841-4.423-3.702L-3.628-2.873-.503-.207C-.433-.138-.353-.086-.265-.051-.194-.018-.105 0 0 0M1.351-2.071C.115-3.02-.865-3.978-1.589-4.944-2.189-5.808-2.622-6.696-2.887-7.61-3.029-8.077-3.125-8.508-3.179-8.905L-2.436-9.63C-1.73-9.198-1.042-8.595-.371-7.818 0-7.386 .345-6.877 .662-6.29L1.351-3.185 1.669-2.304Z" fill="#ec2027"/>
<path transform="matrix(1,0,0,-1,246.2373,335.0918)" d="M0 0-.053-2.615-.371-4.091C.265-3.158 1.024-2.382 1.907-1.76 2.914-1.053 3.788-.535 4.529-.207 4.776-.069 5.032-.009 5.297-.025 5.386-.025 5.475-.052 5.562-.104 5.65-.139 5.73-.19 5.801-.259 6.136-.57 6.48-.967 6.833-1.45 6.958-1.675 7.028-1.915 7.046-2.175 5.933-5.16 5.271-8.146 5.059-11.132V-11.521L1.245-12.479C1.687-9.389 2.41-6.498 3.417-3.806L2.728-3.055C2.004-3.486 1.404-3.987 .927-4.556 .397-5.178 0-5.808-.265-6.446-.883-8.31-1.307-10.036-1.536-11.624-1.589-11.848-1.695-12.063-1.854-12.271-1.907-12.34-1.986-12.384-2.093-12.4-2.163-12.435-2.251-12.452-2.357-12.452-2.464-12.47-2.569-12.47-2.675-12.452-2.799-12.435-2.905-12.4-2.993-12.349-3.417-12.09-3.771-11.771-4.053-11.392-4.371-11.046-4.608-10.632-4.768-10.148-4.874-9.854-4.892-9.562-4.821-9.268-4.768-8.854-4.635-8.509-4.423-8.232-4.105-7.854-3.85-7.456-3.655-7.042-3.497-6.593-3.391-6.049-3.337-5.411-3.213-4.202-3.213-2.692-3.337-.88Z" fill="#ec2027"/>
<path transform="matrix(1,0,0,-1,266.8174,335.3506)" d="M0 0C.477 .086 .954 .077 1.431-.026 2.208-.216 3.073-.578 4.026-1.113L4.98-1.709 3.523-4.013C3.382-4.03 3.25-4.021 3.125-3.987 2.985-3.952 2.861-3.892 2.754-3.806 2.295-3.409 1.695-3.046 .954-2.719 .477-2.512 .01-2.399-.45-2.382-.697-2.365-.927-2.416-1.139-2.537-1.191-2.555-1.245-2.589-1.298-2.641-1.35-2.692-1.386-2.744-1.403-2.796-1.421-2.883-1.421-2.96-1.403-3.029-.309-4.064 .856-4.988 2.093-5.799 2.393-6.023 2.667-6.334 2.914-6.73 3.073-7.076 3.144-7.439 3.125-7.818 3.107-8.302 3.002-8.759 2.808-9.19 2.49-9.897 1.995-10.614 1.325-11.339 1.024-11.667 .635-11.986 .16-12.297-.106-12.453-.397-12.538-.715-12.556-.98-12.573-1.253-12.547-1.537-12.479-2.648-12.288-3.664-11.935-4.582-11.417-5.059-11.158-5.403-10.942-5.615-10.77L-4.317-8.077-1.721-9.397C-1.139-9.604-.591-9.717-.079-9.734 .186-9.751 .451-9.699 .715-9.579 .769-9.562 .822-9.535 .875-9.501 .927-9.449 .962-9.397 .98-9.346 1.016-9.26 1.033-9.173 1.033-9.087 1.016-9 .989-8.915 .954-8.828 .901-8.742 .83-8.664 .742-8.595 .653-8.526 .556-8.475 .451-8.439L-2.251-6.602C-2.675-6.274-3.019-5.92-3.285-5.541-3.567-5.161-3.744-4.772-3.814-4.375-3.867-4.013-3.832-3.711-3.708-3.47-3.531-2.969-3.266-2.521-2.914-2.123-2.419-1.501-1.898-.967-1.35-.518-.962-.259-.512-.087 0 0" fill="#ec2027"/>
<path transform="matrix(1,0,0,-1,431.7016,340.1152)" d="M0 0V11.461C1.208 9.212 2.844 7.424 4.91 6.098 6.975 4.771 9.152 4.108 11.441 4.108 13.22 4.108 14.729 4.642 15.969 5.708 17.24 6.746 17.876 8.015 17.876 9.515 17.876 10.726 17.32 11.851 16.208 12.889 15.063 13.926 13.602 14.676 11.821 15.137 8.454 16.002 5.721 17.357 3.622 19.202 1.524 21.048 .477 23.009 .477 25.085 .477 27.593 1.51 29.539 3.575 30.924 5.608 32.308 8.484 32.999 12.203 32.999 13.95 32.999 15.286 32.813 16.208 32.438 16.779 32.207 17.654 32.091 18.829 32.091 19.338 32.091 19.814 32.164 20.26 32.308 20.736 32.423 21.134 32.61 21.451 32.87V22.923C20.371 24.796 18.988 26.267 17.304 27.334 15.651 28.43 13.936 28.978 12.156 28.978 10.376 28.978 8.866 28.646 7.627 27.982 6.355 27.319 5.721 26.526 5.721 25.604 5.721 24.335 6.467 23.124 7.96 21.971 9.486 20.847 11.425 20.01 13.776 19.462 16.605 18.828 18.908 17.631 20.688 15.873 22.468 14.143 23.357 12.211 23.357 10.076 23.357 7.107 22.341 4.714 20.308 2.897 18.24 1.109 15.509 .216 12.108 .216 9.979 .216 8.484 .359 7.627 .648 6.578 .994 5.467 1.167 4.29 1.167 3.4 1.167 2.59 1.066 1.859 .864 1.128 .663 .509 .374 0 0" fill="#545455"/>
<path transform="matrix(1,0,0,-1,469.1225,339.8994)" d="M0 0C-2.511 0-4.641 .764-6.389 2.292-8.168 3.792-9.059 5.622-9.059 7.785V19.03C-9.059 20.039-9.217 20.99-9.534 21.885-9.884 22.778-10.361 23.558-10.964 24.22H-4.767V9.515C-4.767 7.843-4.212 6.415-3.099 5.233-1.986 4.051-.636 3.46 .953 3.46 2.669 3.46 4.132 4.065 5.338 5.276 6.546 6.459 7.149 7.9 7.149 9.601V19.03C7.149 19.866 6.944 20.731 6.531 21.625 6.117 22.52 5.53 23.385 4.766 24.22H11.441V5.622C11.441 5.161 11.647 4.483 12.061 3.589 12.44 2.725 13.029 1.672 13.824 .433H8.819C8.501 .605 8.214 .908 7.96 1.341 7.706 1.773 7.516 2.306 7.389 2.941 6.689 2.019 5.688 1.298 4.386 .778 3.083 .26 1.62 0 0 0" fill="#545455"/>
<path transform="matrix(1,0,0,-1,486.2837,348.98243)" d="M0 0C1.271 1.99 1.907 4.008 1.907 6.056V26.383C1.907 27.363 1.701 28.344 1.287 29.324 .874 30.275 .286 31.169-.477 32.005L5.243 34.168C5.562 33.908 5.8 33.462 5.959 32.827 6.117 32.164 6.197 31.386 6.197 30.491 7.151 31.529 8.31 32.323 9.677 32.871 11.043 33.447 12.506 33.736 14.063 33.736 17.368 33.736 20.021 32.61 22.024 30.362 24.025 28.113 25.027 25.128 25.027 21.409 25.027 17.517 24.01 14.489 21.977 12.327 19.91 10.164 17.034 9.083 13.348 9.083 11.917 9.083 10.646 9.271 9.534 9.645 8.454 10.049 7.659 10.582 7.151 11.245V6.056C7.151 4.008 7.785 1.99 9.058 0ZM13.348 12.543C15.382 12.543 17.003 13.351 18.21 14.965 19.418 16.58 20.021 18.729 20.021 21.409 20.021 24.033 19.434 26.152 18.259 27.768 17.082 29.382 15.525 30.218 13.586 30.275 11.488 30.275 9.819 29.469 8.58 27.854 7.31 26.239 6.675 24.091 6.675 21.409 6.675 18.729 7.277 16.58 8.485 14.965 9.693 13.351 11.313 12.543 13.348 12.543" fill="#545455"/>
<path transform="matrix(1,0,0,-1,528.0903,339.8994)" d="M0 0C-3.877 0-6.976 1.11-9.295 3.33-11.615 5.579-12.775 8.55-12.775 12.24-12.775 16.161-11.694 19.217-9.534 21.408-7.342 23.571-4.29 24.653-.382 24.653 2.924 24.653 5.499 23.716 7.342 21.841 9.185 19.996 10.105 17.386 10.105 14.013V10.813H-7.293C-7.293 8.707-6.547 7.035-5.053 5.796-3.527 4.527-1.525 3.893 .954 3.893 3.083 3.893 4.941 4.166 6.531 4.715 8.152 5.233 9.344 5.969 10.105 6.92 10.105 4.814 9.185 3.143 7.342 1.903 5.499 .635 3.051 0 0 0M-7.293 14.272H5.101C5.101 16.291 4.561 17.92 3.48 19.16 2.399 20.371 .954 20.976-.857 20.976-2.797 20.976-4.354 20.371-5.529 19.16-6.706 17.92-7.293 16.291-7.293 14.272" fill="#545455"/>
<path transform="matrix(1,0,0,-1,542.0102,339.4668)" d="M0 0C.699 .865 1.224 1.744 1.573 2.638 1.955 3.531 2.146 4.382 2.146 5.189V17.3C2.146 18.078 1.938 18.886 1.525 19.722 1.112 20.587 .524 21.437-.238 22.274L5.005 24.221C5.482 23.471 5.721 22.461 5.721 21.192 6.229 22.115 7.007 22.851 8.056 23.398 9.137 23.946 10.344 24.221 11.679 24.221 13.142 24.221 14.095 24.147 14.54 24.003 15.397 23.715 16.191 23.57 16.923 23.57V16.65C16.128 17.92 15.238 18.929 14.253 19.679 13.268 20.399 12.331 20.76 11.44 20.76 10.201 20.76 9.089 20.27 8.104 19.29 7.15 18.309 6.595 17.098 6.436 15.656V5.189C6.436 4.556 6.643 3.791 7.055 2.897 7.468 2.004 8.056 1.037 8.818 0Z" fill="#545455"/>
<path transform="matrix(1,0,0,-1,562.3168,339.8994)" d="M0 0V8.65C1.304 7.006 2.798 5.738 4.481 4.844 6.166 3.921 7.851 3.46 9.535 3.46 11.061 3.46 12.348 3.85 13.396 4.627 14.477 5.406 15.018 6.357 15.018 7.482 15.018 8.203 14.493 8.895 13.444 9.558 12.427 10.192 11.124 10.64 9.535 10.899 6.771 11.332 4.497 12.182 2.717 13.45 .906 14.749 0 16.146 0 17.646 0 19.866 .954 21.582 2.86 22.793 4.799 24.033 7.501 24.653 10.965 24.653 11.918 24.653 12.713 24.58 13.349 24.436 13.984 24.292 14.779 24.22 15.732 24.22 16.304 24.22 16.797 24.278 17.21 24.393 17.623 24.509 17.925 24.667 18.115 24.869V16.867C17.066 18.28 15.796 19.391 14.302 20.198 12.84 21.005 11.33 21.408 9.772 21.408 8.406 21.408 7.23 21.135 6.245 20.587 5.261 20.011 4.768 19.333 4.768 18.554 4.768 17.891 5.356 17.242 6.531 16.608 7.738 15.974 9.248 15.513 11.061 15.224 13.667 14.82 15.812 13.897 17.496 12.456 19.181 11.043 20.022 9.457 20.022 7.698 20.022 5.363 19.006 3.503 16.972 2.119 14.938 .706 12.221 0 8.819 0 6.977 0 5.785 .072 5.245 .217 4.704 .36 3.751 .433 2.385 .433 1.908 .433 1.113 .288 0 0" fill="#545455"/>
<path transform="matrix(1,0,0,-1,585.9614,348.98243)" d="M0 0C1.271 1.99 1.907 4.008 1.907 6.056V26.383C1.907 27.363 1.701 28.344 1.287 29.324 .875 30.275 .287 31.169-.476 32.005L5.244 34.168C5.562 33.908 5.8 33.462 5.959 32.827 6.118 32.164 6.198 31.386 6.198 30.491 7.151 31.529 8.311 32.323 9.678 32.871 11.044 33.447 12.507 33.736 14.063 33.736 17.369 33.736 20.021 32.61 22.024 30.362 24.026 28.113 25.027 25.128 25.027 21.409 25.027 17.517 24.011 14.489 21.977 12.327 19.911 10.164 17.034 9.083 13.349 9.083 11.918 9.083 10.647 9.271 9.535 9.645 8.454 10.049 7.66 10.582 7.151 11.245V6.056C7.151 4.008 7.786 1.99 9.058 0ZM13.349 12.543C15.382 12.543 17.003 13.351 18.211 14.965 19.418 16.58 20.021 18.729 20.021 21.409 20.021 24.033 19.434 26.152 18.259 27.768 17.082 29.382 15.525 30.218 13.587 30.275 11.488 30.275 9.82 29.469 8.581 27.854 7.31 26.239 6.675 24.091 6.675 21.409 6.675 18.729 7.278 16.58 8.485 14.965 9.694 13.351 11.314 12.543 13.349 12.543" fill="#545455"/>
<path transform="matrix(1,0,0,-1,627.769,339.8994)" d="M0 0C-3.878 0-6.977 1.11-9.296 3.33-11.616 5.579-12.775 8.55-12.775 12.24-12.775 16.161-11.695 19.217-9.535 21.408-7.342 23.571-4.29 24.653-.382 24.653 2.924 24.653 5.498 23.716 7.341 21.841 9.185 19.996 10.105 17.386 10.105 14.013V10.813H-7.293C-7.293 8.707-6.548 7.035-5.053 5.796-3.528 4.527-1.526 3.893 .953 3.893 3.082 3.893 4.941 4.166 6.531 4.715 8.152 5.233 9.343 5.969 10.105 6.92 10.105 4.814 9.185 3.143 7.341 1.903 5.498 .635 3.05 0 0 0M-7.293 14.272H5.101C5.101 16.291 4.561 17.92 3.48 19.16 2.399 20.371 .953 20.976-.858 20.976-2.797 20.976-4.354 20.371-5.529 19.16-6.706 17.92-7.293 16.291-7.293 14.272" fill="#545455"/>
<path transform="matrix(1,0,0,-1,653.0336,339.8994)" d="M0 0C-3.368 0-6.07 1.124-8.104 3.374-10.138 5.622-11.154 8.606-11.154 12.326-11.154 16.045-10.105 19.03-8.009 21.279-5.911 23.527-3.113 24.653 .382 24.653 1.08 24.653 1.875 24.58 2.766 24.436 3.655 24.292 4.735 24.22 6.007 24.22 7.056 24.22 7.851 24.364 8.39 24.653V16.219C7.405 17.746 6.197 18.958 4.768 19.852 3.306 20.745 1.812 21.192 .287 21.192-1.493 21.192-3.003 20.327-4.243 18.598-5.513 16.867-6.149 14.777-6.149 12.326-6.149 9.99-5.513 8.001-4.243 6.357-3.003 4.715-1.493 3.893 .287 3.893 1.748 3.893 3.241 4.166 4.768 4.715 6.293 5.291 7.738 6.098 9.105 7.136 9.105 4.974 8.278 3.244 6.627 1.946 4.975 .648 2.766 0 0 0" fill="#545455"/>
<path transform="matrix(1,0,0,-1,665.3334,339.4668)" d="M0 0C.763 1.037 1.351 2.004 1.764 2.897 2.177 3.791 2.383 4.556 2.383 5.189V17.3C2.383 18.078 2.177 18.915 1.764 19.809 1.351 20.702 .763 21.596 0 22.489L7.15 24.437V5.189C7.15 4.44 7.341 3.618 7.723 2.725 8.135 1.83 8.708 .923 9.438 0ZM3.813 26.815C3.019 26.815 2.352 27.074 1.812 27.594 1.238 28.083 .954 28.688 .954 29.41 .954 30.131 1.238 30.736 1.812 31.227 2.352 31.746 3.019 32.005 3.813 32.005 4.608 32.005 5.275 31.746 5.814 31.227 6.388 30.736 6.674 30.131 6.674 29.41 6.674 28.688 6.388 28.083 5.814 27.594 5.275 27.074 4.608 26.815 3.813 26.815" fill="#545455"/>
<path transform="matrix(1,0,0,-1,686.5942,339.8994)" d="M0 0C-2.7 0-4.878 .605-6.53 1.816-8.151 3.027-8.961 4.627-8.961 6.617-8.961 8.55-7.992 10.25-6.054 11.721-4.147 13.191-1.59 14.187 1.621 14.705 3.465 14.994 4.941 15.498 6.054 16.219 7.167 16.91 7.723 17.703 7.723 18.598 7.723 19.376 7.31 20.039 6.484 20.587 5.625 21.135 4.608 21.408 3.432 21.408 1.812 21.408 .159 20.99-1.526 20.154-3.178 19.318-4.703 18.15-6.102 16.651V24.22C-5.243 23.932-4.608 23.788-4.195 23.788-2.924 23.788-1.651 23.932-.382 24.22 .89 24.509 2.352 24.653 4.005 24.653 6.802 24.653 8.914 24.062 10.345 22.879 11.774 21.697 12.489 19.938 12.489 17.604V5.622C12.489 4.7 12.68 3.792 13.063 2.897 13.411 2.004 13.936 1.182 14.635 .433H9.629C9.09 .721 8.66 1.052 8.342 1.427 8.024 1.802 7.817 2.191 7.723 2.595 7.022 1.787 5.99 1.153 4.624 .692 3.257 .23 1.717 0 0 0M.572 3.46C2.319 3.46 3.861 3.936 5.195 4.887 6.531 5.839 7.373 7.064 7.723 8.563V12.759C7.405 12.413 6.705 12.096 5.625 11.808L1.43 11.028C-.19 10.77-1.541 10.192-2.622 9.299-3.671 8.434-4.195 7.453-4.195 6.357-4.195 5.551-3.733 4.873-2.813 4.325-1.859 3.748-.731 3.46 .572 3.46" fill="#545455"/>
<path transform="matrix(1,0,0,-1,703.9946,339.4668)" d="M0 0C.762 1.037 1.351 2.004 1.764 2.897 2.177 3.791 2.383 4.556 2.383 5.189V25.95C2.383 26.757 2.224 27.55 1.906 28.329 1.557 29.107 1.08 29.828 .476 30.491L6.674 32.438V5.189C6.674 3.432 7.31 1.701 8.58 0Z" fill="#545455"/>
<path transform="matrix(1,0,0,-1,715.9584,339.4668)" d="M0 0C.763 1.037 1.351 2.004 1.765 2.897 2.177 3.791 2.384 4.556 2.384 5.189V17.3C2.384 18.078 2.177 18.915 1.765 19.809 1.351 20.702 .763 21.596 0 22.489L7.15 24.437V5.189C7.15 4.44 7.341 3.618 7.723 2.725 8.136 1.83 8.708 .923 9.438 0ZM3.813 26.815C3.019 26.815 2.352 27.074 1.812 27.594 1.24 28.083 .954 28.688 .954 29.41 .954 30.131 1.24 30.736 1.812 31.227 2.352 31.746 3.019 32.005 3.813 32.005 4.608 32.005 5.276 31.746 5.815 31.227 6.389 30.736 6.674 30.131 6.674 29.41 6.674 28.688 6.389 28.083 5.815 27.594 5.276 27.074 4.608 26.815 3.813 26.815" fill="#545455"/>
<path transform="matrix(1,0,0,-1,741.0336,339.8994)" d="M0 0C-2.034 0-3.782 .592-5.245 1.773-6.674 2.956-7.39 4.383-7.39 6.055V20.327H-10.727C-11.807 20.327-12.76 20.111-13.587 19.679L-12.156 24.653C-10.886 24.364-9.932 24.22-9.297 24.22-8.756 24.22-8.311 24.393-7.962 24.739-7.58 25.056-7.39 25.46-7.39 25.95V29.193C-7.39 30.002-7.548 30.65-7.866 31.141H-3.1V24.22H3.574C4.052 24.22 4.513 24.292 4.958 24.436 5.401 24.58 5.815 24.797 6.196 25.085L5.005 19.895C4.146 20.184 3.353 20.327 2.622 20.327H-3.1V7.568C-3.1 6.502-2.687 5.579-1.859 4.801-1.002 4.051 .016 3.677 1.191 3.677 2.24 3.677 3.241 3.878 4.193 4.282 5.147 4.715 5.974 5.305 6.673 6.055 6.673 4.209 6.07 2.739 4.862 1.643 3.654 .548 2.033 0 0 0" fill="#545455"/>
<path transform="matrix(1,0,0,-1,754.3803,348.98243)" d="M0 0C-1.334 0-2.597-.043-3.79-.129-4.981-.245-5.371-.346-4.965-.433V6.921C-4.06 5.854-3.178 5.032-2.335 4.455-1.477 3.85-.73 3.547-.096 3.547 1.303 3.633 2.479 4.253 3.433 5.407 4.386 6.56 4.862 7.929 4.862 9.516 4.862 9.659 4.784 9.963 4.625 10.424 4.371 11.029 4.18 11.591 4.053 12.11L-1.906 28.113C-2.098 28.863-3.193 30.593-5.204 33.303H3.813C3.369 32.842 3.035 32.423 2.813 32.049 2.591 31.674 2.479 31.372 2.479 31.141 2.479 29.93 2.606 28.92 2.86 28.113L7.628 15.138 12.396 28.113C12.713 29.122 12.872 30.132 12.872 31.141 12.872 31.429 12.776 31.76 12.585 32.136 12.362 32.511 12.061 32.899 11.681 33.303H20.022C19.132 32.468 18.338 31.169 17.638 29.41L9.772 7.612C9.297 5.104 8.232 3.2 6.579 1.903 4.927 .635 2.733 0 0 0" fill="#545455"/>
<path transform="matrix(1,0,0,-1,433.6489,430.51753)" d="M0 0V1.771H1.812C3.808 1.771 5.529 2.451 6.98 3.81 8.369 5.228 9.064 6.91 9.064 8.859V54.931C9.064 56.881 8.369 58.563 6.98 59.981 5.529 61.34 3.808 62.02 1.812 62.02H0V63.792H27.193V62.02H25.381C23.629 62.02 22.148 61.34 20.939 59.981 19.67 58.563 19.035 56.881 19.035 54.931V33.668H48.949V54.931C48.949 56.881 48.315 58.563 47.047 59.981 45.838 61.34 44.357 62.02 42.604 62.02H40.791V63.792H67.079V62.02H65.267C63.514 62.02 62.034 61.34 60.825 59.981 59.557 58.563 58.921 56.881 58.921 54.931V8.859C58.921 6.91 59.557 5.228 60.825 3.81 62.034 2.451 63.514 1.771 65.267 1.771H67.079V0H40.791V1.771H42.604C44.357 1.771 45.838 2.451 47.047 3.81 48.315 5.228 48.949 6.91 48.949 8.859V30.123H19.035V8.859C19.035 6.91 19.67 5.228 20.939 3.81 22.148 2.451 23.629 1.771 25.381 1.771H27.193V0Z" fill="#ec2027"/>
<path transform="matrix(1,0,0,-1,527.9243,431.40333)" d="M0 0C-5.983 0-11.12 2.244-15.411 6.733-19.642 11.222-21.756 16.657-21.756 23.035-21.756 29.179-19.642 34.406-15.411 38.718-11.12 43.029-5.983 45.186 0 45.186 5.982 45.186 11.119 43.029 15.409 38.718 19.64 34.406 21.756 29.179 21.756 23.035 21.756 16.657 19.64 11.222 15.409 6.733 11.119 2.244 5.982 0 0 0M1.812 2.657C5.076 2.657 7.855 4.489 10.152 8.151 12.448 11.754 13.597 16.125 13.597 21.264 13.597 27.111 12.085 32.132 9.064 36.326 6.043 40.46 2.417 42.527-1.813 42.527-5.077 42.527-7.857 40.785-10.153 37.3-12.449 33.874-13.599 29.71-13.599 24.808-13.599 18.664-12.087 13.438-9.066 9.125-6.045 4.813-2.418 2.657 1.812 2.657" fill="#ec2027"/>
<path transform="matrix(1,0,0,-1,560.9203,430.51753)" d="M0 0-.906 15.063H.906C1.57 11.223 3.112 8.033 5.529 5.493 7.946 3.013 10.637 1.771 13.597 1.771 15.833 1.771 17.767 2.451 19.398 3.81 20.97 5.228 21.755 6.91 21.755 8.859 21.755 10.75 20.849 12.581 19.035 14.354 17.224 16.125 14.806 17.543 11.784 18.606 7.977 19.964 4.895 21.913 2.538 24.454 .241 26.935-.906 29.562-.906 32.339-.906 35.646 .332 38.452 2.811 40.756 5.287 43.118 8.278 44.3 11.784 44.3 14.08 44.3 16.045 44.004 17.676 43.414 19.309 42.823 20.668 42.527 21.755 42.527 22.179 42.527 22.57 42.616 22.934 42.794 23.235 42.912 23.447 43.118 23.567 43.414H25.381L26.287 30.123H24.475C23.206 33.608 21.483 36.385 19.309 38.452 17.132 40.579 14.928 41.642 12.69 41.642 10.817 41.642 9.215 41.109 7.887 40.047 6.558 39.043 5.892 37.803 5.892 36.326 5.892 34.199 6.919 32.132 8.974 30.123 11.089 28.057 13.838 26.432 17.224 25.251 20.789 24.011 23.63 22.209 25.744 19.846 27.919 17.483 29.007 15.003 29.007 12.404 29.007 8.742 27.496 5.611 24.475 3.013 21.453 .413 17.827-.886 13.597-.886 11.603-.886 9.76-.62 8.067-.089 6.315 .443 4.834 1.211 3.626 2.215L1.813 0Z" fill="#ec2027"/>
<path transform="matrix(1,0,0,-1,595.9106,451.7812)" d="M0 0V1.771H1.813C3.324 1.771 4.593 2.392 5.62 3.633 6.708 4.813 7.252 6.261 7.252 7.974V54.932C7.252 56.172 6.891 57.205 6.165 58.032 5.499 58.919 4.653 59.361 3.627 59.361H.453L0 61.134 15.41 65.563V58.919C16.619 60.985 18.522 62.61 21.121 63.791 23.721 64.973 26.65 65.563 29.914 65.563 34.266 65.563 38.013 63.673 41.155 59.893 44.236 56.054 45.778 51.446 45.778 46.071 45.778 38.983 43.874 32.93 40.067 27.908 36.259 22.888 31.667 20.378 26.288 20.378 23.69 20.378 21.423 20.644 19.49 21.175 17.616 21.707 16.257 22.475 15.41 23.479V7.974C15.41 6.261 16.046 4.813 17.314 3.633 18.522 2.392 20.004 1.771 21.756 1.771H23.569V0ZM25.382 23.035C28.888 23.035 31.878 24.926 34.356 28.706 36.834 32.546 38.072 37.152 38.072 42.527 38.072 47.548 36.834 51.83 34.356 55.374 31.878 58.919 28.888 60.69 25.382 60.69 23.206 60.69 21.212 60.129 19.399 59.007 17.586 57.885 16.257 56.378 15.41 54.488V28.352C16.015 26.757 17.223 25.458 19.037 24.454 20.85 23.508 22.965 23.035 25.382 23.035" fill="#ec2027"/>
<path transform="matrix(1,0,0,-1,648.4868,430.51753)" d="M0 0V1.771H1.813C3.324 1.771 4.594 2.304 5.621 3.367 6.709 4.371 7.252 5.611 7.252 7.088V35.44C7.252 36.147 6.98 36.769 6.437 37.3 5.892 37.832 5.258 38.098 4.532 38.098H0V39.427L15.411 44.3V7.088C15.411 5.611 15.864 4.371 16.771 3.367 17.616 2.304 18.674 1.771 19.943 1.771H21.756V0ZM11.332 55.818C9.94 55.818 8.763 56.349 7.796 57.412 6.83 58.416 6.346 59.657 6.346 61.134 6.346 62.373 6.83 63.407 7.796 64.234 8.763 65.12 9.94 65.563 11.332 65.563 12.601 65.563 13.658 65.12 14.504 64.234 15.411 63.407 15.864 62.373 15.864 61.134 15.864 59.657 15.411 58.416 14.504 57.412 13.658 56.349 12.601 55.818 11.332 55.818" fill="#ec2027"/>
<path transform="matrix(1,0,0,-1,689.0981,431.40333)" d="M0 0C-2.236 0-4.171 .944-5.802 2.835-7.372 4.725-8.157 7.028-8.157 9.745V40.756H-14.504V43.413C-11.361 45.186-8.702 47.223-6.526 49.527-4.291 51.83-2.719 54.223-1.812 56.704H0V44.3H9.972V41.198H0V10.631C0 9.037 .545 7.678 1.632 6.557 2.659 5.434 3.928 4.873 5.439 4.873 6.587 4.873 7.614 5.08 8.521 5.492 9.368 5.848 10.002 6.379 10.425 7.088L11.784 6.201C10.636 4.312 9.004 2.806 6.89 1.683 4.835 .562 2.538 0 0 0" fill="#ec2027"/>
<path transform="matrix(1,0,0,-1,716.2934,431.40333)" d="M0 0C-2.78 0-5.138 1.033-7.07 3.101-9.004 5.168-9.973 7.678-9.973 10.631-9.973 14.412-7.615 18.074-2.901 21.617 1.873 25.161 7.977 27.85 15.409 29.68V36.326C15.409 38.156 14.624 39.722 13.054 41.021 11.421 42.32 9.488 42.971 7.251 42.971 5.378 42.971 3.777 42.586 2.447 41.818 1.118 41.051 .453 40.105 .453 38.983L.906 36.326C1.026 35.676 1.088 35.085 1.088 34.554 1.088 33.55 .665 32.723-.182 32.073-1.028 31.364-2.025 31.009-3.174 31.009-4.32 31.009-5.289 31.452-6.074 32.338-6.859 33.165-7.253 34.199-7.253 35.439-7.253 38.156-5.832 40.46-2.991 42.351-.15 44.24 3.263 45.186 7.251 45.186 12.631 45.186 16.709 44.063 19.488 41.818 22.209 39.574 23.568 36.266 23.568 31.895V8.859C23.568 7.856 23.931 7.028 24.656 6.379 25.32 5.671 26.167 5.315 27.194 5.315 27.738 5.315 28.252 5.463 28.735 5.759 29.218 6.113 29.611 6.557 29.913 7.088L31.273 6.645C30.548 4.637 29.31 3.042 27.557 1.86 25.805 .62 23.871 0 21.756 0 20.062 0 18.613 .591 17.405 1.771 16.195 2.953 15.53 4.43 15.409 6.201 14.08 4.253 12.056 2.746 9.337 1.683 6.617 .562 3.505 0 0 0M7.251 5.759C8.521 5.759 9.85 6.172 11.24 6.999 12.69 7.886 14.08 9.096 15.409 10.631V27.022C10.575 25.664 6.647 23.715 3.625 21.175 .604 18.635-.907 16.007-.907 13.29-.907 11.222-.121 9.45 1.45 7.974 3.081 6.497 5.016 5.759 7.251 5.759" fill="#ec2027"/>
<path transform="matrix(1,0,0,-1,750.1049,430.51753)" d="M0 0V1.771H1.813C3.323 1.771 4.593 2.304 5.621 3.367 6.709 4.371 7.252 5.611 7.252 7.088V55.818C7.252 57.058 6.89 58.092 6.164 58.919 5.5 59.805 4.653 60.247 3.626 60.247H0V62.02L15.411 65.563V7.088C15.411 5.611 15.954 4.371 17.042 3.367 18.068 2.304 19.339 1.771 20.85 1.771H22.663V0Z" fill="#ec2027"/>
<path transform="matrix(1,0,0,-1,258.4653,332.9873)" d="M0 0-2.344-4.868H0L1.587 .472Z" fill="#ec2027"/>
</g>
</g>
</svg>
